<svg xmlns="http://www.w3.org/2000/svg" width="42" height="42" viewBox="0 0 42 42">
  <g id="group_235" data-name="group 235" transform="translate(-2615 -8)">
    <rect id="rect_347" data-name="rect 347" width="42" height="42" transform="translate(2615 8)" fill="none"/>
    <path id="magnifying-glass-solid" d="M30.877,15.28a15.139,15.139,0,0,1-2.969,9.014L37.3,33.6a2.337,2.337,0,0,1,0,3.328,2.4,2.4,0,0,1-3.362,0l-9.4-9.308A15.474,15.474,0,0,1,0,15.28,15.358,15.358,0,0,1,15.438,0,15.358,15.358,0,0,1,30.877,15.28ZM15.438,25.859A10.579,10.579,0,1,0,4.75,15.28,10.634,10.634,0,0,0,15.438,25.859Z" transform="translate(2617 10.18)" fill="#fff"/>
  </g>
</svg>
